# xmcd CD database file
#
# Track frame offsets:
#	150
#	18158
#	35810
#	54273
#	68528
#	90252
#	112977
#	130523
#	148559
#	168930
#	184149
#
# Disc length: 2759 seconds
#
# Revision: 0
# Processed by: cddbd v1.5.2PL0 Copyright (c) Steve Scherf et al.
# Submitted via: CDex 1.70beta2
#
DISCID=800ac50b
DTITLE=Mas Y Mas - Agarrate
DYEAR=2004
DGENRE=Salsa
TTITLE0=Por Que Sera
TTITLE1=En Mexico
TTITLE2=Amiguito
TTITLE3=Por Ella
TTITLE4=Agarrate
TTITLE5=Madreselva
TTITLE6=El Mochilon
TTITLE7=Palabras
TTITLE8=La Miel
TTITLE9=Carlos Y Maria
TTITLE10=The Hump
EXTD=YEAR: 2004
EXTT0=
EXTT1=
EXTT2=
EXTT3=
EXTT4=
EXTT5=
EXTT6=
EXTT7=
EXTT8=
EXTT9=
EXTT10=
PLAYORDER=
